PathFileType	4	(X/Y/Z)	C:\Users\Basilio\Documents\Thesis Gigler\squatting_fais\c3dfiles\054\SLS_back_pre1\markers_experimental.trc
DataRate	CameraRate	NumFrames	NumMarkers	Units	OrigDataRate	OrigDataStartFrame	OrigNumFrames
200.000000	200.000000	4	61	mm	200.000000	1520	1738
Frame#	Time	FHD			LBHD			RBHD			C7			T10			CLAV			LSHO			LUUPA			LMUPA			LDUPA			LLEP			LMEP			LRAD			LUL			LRFIN			RSHO			RUPA1			RMUPA			RDUPA			RLEP			RMEP			RRAD			RUL			RUFIN			LASI			RASI			USACR			LSACR			RSACR			LTHI1			LTHI2			LTHI3			LTHI4			LLFC			LMFC			LTIB1			LTIB2			LTIB3			LTIB4			LLMAL			LMMAL			LHEE			LMT1			LMT2			LMT5			RTHI			RTHI2			RTHI3			RTHI4			RLFC			RMFC			RTIB1			RTIB2			RTIB3			RTIB4			RLMAL			RMMAL			RHEE			RMT1			RMT2			RMT5			
		X1	Y1	Z1	X2	Y2	Z2	X3	Y3	Z3	X4	Y4	Z4	X5	Y5	Z5	X6	Y6	Z6	X7	Y7	Z7	X8	Y8	Z8	X9	Y9	Z9	X10	Y10	Z10	X11	Y11	Z11	X12	Y12	Z12	X13	Y13	Z13	X14	Y14	Z14	X15	Y15	Z15	X16	Y16	Z16	X17	Y17	Z17	X18	Y18	Z18	X19	Y19	Z19	X20	Y20	Z20	X21	Y21	Z21	X22	Y22	Z22	X23	Y23	Z23	X24	Y24	Z24	X25	Y25	Z25	X26	Y26	Z26	X27	Y27	Z27	X28	Y28	Z28	X29	Y29	Z29	X30	Y30	Z30	X31	Y31	Z31	X32	Y32	Z32	X33	Y33	Z33	X34	Y34	Z34	X35	Y35	Z35	X36	Y36	Z36	X37	Y37	Z37	X38	Y38	Z38	X39	Y39	Z39	X40	Y40	Z40	X41	Y41	Z41	X42	Y42	Z42	X43	Y43	Z43	X44	Y44	Z44	X45	Y45	Z45	X46	Y46	Z46	X47	Y47	Z47	X48	Y48	Z48	X49	Y49	Z49	X50	Y50	Z50	X51	Y51	Z51	X52	Y52	Z52	X53	Y53	Z53	X54	Y54	Z54	X55	Y55	Z55	X56	Y56	Z56	X57	Y57	Z57	X58	Y58	Z58	X59	Y59	Z59	X60	Y60	Z60	X61	Y61	Z61	

1521	7.600000000000001	-127.9772109985352	1782.294067382813	-979.3872070312502	-298.3168029785157	1745.876831054688	-1045.77880859375	-310.7819519042969	1751.292114257813	-905.9302978515627	-354.4467773437501	1568.962768554688	-957.9833984375002	-371.8633117675782	1239.0087890625	-952.952575683594	-207.5871734619141	1518.62353515625	-970.8992309570315	-293.9088134765626	1567.19677734375	-1117.349487304688	-150.0127258300782	1443.820678710938	-1243.848266601563	-115.7339935302735	1476.492065429688	-1230.831176757813	-81.88219451904298	1432.830932617188	-1254.587524414063	-23.23697280883789	1434.801635742188	-1253.259033203125	-23.161865234375	1371.1826171875	-1206.876953125	230.2618408203126	1464.939819335938	-1163.125854492188	248.4193115234376	1428.744140625	-1230.181518554688	322.9443054199219	1483.9873046875	-1179.569702148438	-273.3846740722657	1568.318115234375	-819.2816162109377	-114.9733428955078	1451.5830078125	-697.8856201171876	-79.91625976562501	1481.804443359375	-711.2012939453126	-46.86641311645509	1433.950317382813	-690.5872192382814	-1.998972773551941	1427.739501953125	-694.4580688476564	-9.019080162048342	1372.187133789063	-746.9994506835939	246.7657623291016	1489.342041015625	-826.6440429687502	260.5217285156251	1454.448120117188	-756.0651245117189	322.2696228027344	1521.3955078125	-821.4653320312502	-187.6577758789063	1061.025390625	-1072.917602539063	-180.8921203613282	1079.869384765625	-818.708923339844	-371.4935302734376	1152.937744140625	-946.3496093750002	-378.3835144042969	1119.794067382813	-972.156188964844	-376.2429199218751	1121.58740234375	-915.2799072265627	-290.4015808105469	823.4794921875002	-1144.923950195313	-262.9384155273438	742.5520019531251	-1143.427368164063	-215.4832458496094	743.2044677734376	-1138.805786132813	-294.3797302246094	691.9054565429689	-1125.185180664063	-301.9259338378907	538.6948242187501	-1105.441162109375	-270.6172180175782	531.3972778320314	-968.9668579101565	-265.7618408203126	371.9381103515626	-1053.11181640625	-316.4309082031251	328.2486877441407	-1109.825317382813	-277.7933349609376	324.0344848632813	-1085.542846679688	-290.2945251464844	247.1890411376954	-1051.187622070313	-356.6965942382813	113.9538726806641	-1089.866943359375	-325.7975158691407	132.3524169921875	-998.5527343750002	-425.8367919921876	102.0802001953125	-1032.692260742188	-214.1372375488282	54.28258895874025	-1011.746459960938	-206.9938964843751	53.17474365234376	-1061.087768554688	-258.6330261230469	38.08859252929688	-1112.874267578125	-265.8729553222657	778.155456542969	-717.0573730468751	-229.1317138671876	723.0701904296876	-712.0038452148439	-195.5858612060547	723.0260620117189	-716.8536987304689	-257.2011108398438	645.0087890625001	-723.5075683593751	-269.4684143066407	556.2511596679689	-718.7427978515626	-217.5874938964844	544.1970214843751	-847.2498779296877	-226.6068878173829	442.7135009765626	-716.1237182617189	-306.3835754394532	382.8353881835938	-677.4204101562501	-262.1931152343751	369.0548706054688	-685.7686157226564	-254.9182128906251	315.2757873535157	-705.8720703125001	-335.5448608398438	144.2491302490235	-671.0944824218751	-292.6764831542969	152.8703308105469	-757.9400024414064	-399.8024902343751	125.1598815917969	-731.1916503906251	-187.5751190185547	53.90366744995119	-734.9573364257814	-186.1446533203125	56.59590911865236	-687.3317260742189	-239.7855224609376	47.71030426025391	-642.7197875976564	
1522	7.605	-128.3554992675782	1782.028198242188	-977.7197265625002	-298.2752685546876	1745.619506835938	-1043.89404296875	-310.7643737792969	1750.9970703125	-904.0857543945315	-354.4569396972657	1568.682861328125	-955.9871826171877	-371.4804077148438	1238.535034179688	-950.8524169921877	-207.7653350830079	1518.36572265625	-969.0681762695315	-294.2705383300782	1566.835693359375	-1115.375122070313	-150.5236206054688	1443.657104492188	-1242.223388671875	-115.8433303833008	1476.474609375	-1229.295532226563	-82.00913238525392	1432.814819335938	-1253.287963867188	-23.45963668823243	1434.66943359375	-1251.779418945313	-23.33028411865235	1371.25146484375	-1205.593627929688	230.1342926025391	1465.223999023438	-1162.02490234375	248.0922546386719	1429.073364257813	-1229.033569335938	322.4638061523438	1484.365356445313	-1178.418212890625	-273.2330322265626	1568.01513671875	-817.5708007812502	-114.4351882934571	1451.297973632813	-696.2191772460939	-79.48534393310548	1481.497436523438	-709.6301879882814	-46.43207168579102	1433.629150390625	-688.9456176757814	-1.510203957557679	1427.550170898438	-693.0723266601564	-8.585602760314943	1371.963989257813	-745.4695434570314	246.8715057373047	1489.336791992188	-825.5297851562502	260.8993530273438	1454.339477539063	-754.9448852539064	322.5050354003907	1521.319458007813	-820.372741699219	-187.2398071289063	1061.136962890625	-1071.35009765625	-180.2221374511719	1079.1201171875	-817.1265258789065	-371.1726074218751	1152.618041992188	-944.4795532226565	-377.7378540039063	1119.545776367188	-970.2476806640627	-375.7626953125001	1121.151733398438	-913.3738403320315	-290.0529479980469	823.5194091796877	-1143.66943359375	-262.6302795410157	742.5748291015626	-1142.1806640625	-215.1457977294922	743.3243408203126	-1137.707641601563	-294.1145324707032	691.9895629882814	-1124.198486328125	-301.7784118652344	538.6263427734376	-1104.69580078125	-270.4674072265626	531.3955688476564	-968.1889648437502	-265.9395446777344	371.9417419433594	-1052.600952148438	-316.5138549804688	328.3932189941407	-1109.542846679688	-277.7509765625001	324.0795288085938	-1085.224853515625	-290.7144470214844	247.0683593750001	-1051.124389648438	-356.6574096679688	113.9951553344727	-1089.920532226563	-325.7980957031251	132.3180847167969	-998.5842285156252	-425.8624572753907	102.0363082885742	-1032.772094726563	-213.9464263916016	54.28120422363283	-1011.7216796875	-207.0139160156251	53.23446273803712	-1061.101318359375	-258.7155456542969	38.10535049438477	-1112.826416015625	-266.7494201660157	777.6163330078127	-715.9636230468751	-230.0340423583985	722.2924804687501	-711.3516845703126	-196.8136749267579	721.9920654296876	-716.2296142578126	-258.7383728027344	644.4882812500001	-722.8138427734376	-271.0245056152344	555.4984741210939	-718.3186035156251	-220.3070220947266	543.4523925781251	-846.5975341796877	-228.0830230712891	441.9328002929689	-715.8085327148439	-307.7509155273438	381.7713317871094	-677.4356689453126	-263.9620971679688	368.1823120117188	-685.4865112304689	-256.2088928222657	314.4212646484376	-705.7067871093751	-336.5231323242188	143.2750854492188	-671.2865600585939	-293.4557800292969	151.9219360351563	-757.8761596679689	-400.6072082519532	123.8515396118164	-731.3908691406251	-188.1208953857422	53.75458908081056	-735.0006713867189	-186.507064819336	55.99023818969728	-686.7073974609376	-240.3624420166016	46.74050903320313	-642.6398315429689	
1523	7.61	-128.5511627197266	1781.806884765625	-976.2719726562502	-298.5276794433594	1745.266723632813	-1042.197998046875	-310.7041625976563	1750.858642578125	-902.2927856445315	-354.5241394042969	1568.259033203125	-954.0609130859377	-370.7239990234376	1237.938842773438	-948.811462402344	-207.6734008789063	1518.157592773438	-967.3775634765627	-294.2584228515626	1566.409057617188	-1113.511840820313	-151.701400756836	1443.481201171875	-1240.645874023438	-116.1803359985352	1476.274658203125	-1227.703735351563	-82.31065368652345	1432.679077148438	-1251.773803710938	-23.77655792236328	1434.597290039063	-1250.471557617188	-23.58649444580078	1371.010986328125	-1204.228881835938	230.0673065185547	1465.002685546875	-1160.560791015625	247.7330780029297	1429.3271484375	-1227.943725585938	322.0740356445313	1484.744384765625	-1177.319458007813	-273.0249633789063	1567.744750976563	-815.736267089844	-114.0057525634766	1451.140869140625	-694.5563964843751	-79.20604705810548	1481.186279296875	-708.1361694335939	-45.97251892089844	1433.437133789063	-687.5089111328126	-1.133081912994385	1427.347045898438	-691.6863403320314	-8.1761531829834	1371.812866210938	-744.0275878906251	247.1194915771485	1489.228637695313	-824.3303222656252	261.1983337402344	1454.204223632813	-753.9021606445314	322.6437683105469	1521.201293945313	-819.288024902344	-186.9949951171875	1061.145263671875	-1069.853515625	-179.9641571044922	1078.256958007813	-815.593200683594	-371.0178222656251	1152.357421875	-942.5322875976565	-377.2562255859376	1119.142944335938	-968.6302490234377	-375.5848693847657	1120.812744140625	-911.7117919921877	-289.6909484863282	823.7362060546877	-1142.721435546875	-262.4311218261719	742.7150878906251	-1141.360961914063	-214.8537902832032	743.4598388671876	-1136.576416015625	-293.7895202636719	692.0917358398439	-1123.265747070313	-301.4176940917969	538.7910766601564	-1103.999267578125	-270.3532409667969	531.2981567382814	-967.4866943359377	-266.1926879882813	371.8183898925782	-1052.060546875	-316.3718566894532	328.3478698730469	-1109.394775390625	-278.2207946777344	324.1224975585938	-1084.803833007813	-290.9968261718751	247.0142059326172	-1051.025756835938	-356.7662658691407	113.9665985107422	-1089.974975585938	-325.8046264648438	132.269271850586	-998.5994873046877	-425.8653259277345	102.0160522460938	-1032.79248046875	-214.1716613769532	54.33681488037111	-1011.7392578125	-206.952621459961	53.22958374023439	-1061.104858398438	-258.6212158203126	38.04500198364259	-1112.890625	-267.3848266601563	776.718688964844	-715.2548217773439	-231.1004791259766	721.4304199218751	-710.4098510742189	-197.7304992675782	720.9650268554689	-715.4348144531251	-259.9805297851563	643.5944824218751	-722.4254150390626	-272.5659484863282	554.6801757812501	-718.0942382812501	-221.0547027587891	542.9335937500001	-846.5009765625002	-229.8964233398438	441.1107177734376	-715.3367919921876	-309.4203796386719	380.8804931640626	-677.4332885742189	-264.9950561523438	367.4173889160157	-685.4617919921876	-257.1276855468751	313.6033020019532	-705.7672729492189	-337.3860473632813	141.9051818847657	-671.5009155273439	-294.3001708984376	150.834457397461	-758.0393676757814	-401.2518615722657	122.2489395141602	-731.6953125000001	-188.3847045898438	53.41551589965822	-734.9149169921876	-187.2183685302735	55.37083816528322	-686.7458496093751	-241.0140075683594	46.00061798095704	-642.6162109375001	
1524	7.615	-128.6227264404297	1781.60498046875	-974.7095947265627	-298.8963928222657	1744.884765625	-1040.35888671875	-310.8507385253907	1750.50634765625	-900.491882324219	-354.5243835449219	1568.019409179688	-952.1199340820315	-370.4629211425782	1237.659301757813	-946.9102172851565	-207.7176361083985	1517.931030273438	-965.5410156250002	-294.4742736816407	1565.966186523438	-1111.5869140625	-150.7870025634766	1443.251098632813	-1238.976440429688	-116.6426315307617	1476.046997070313	-1226.09228515625	-82.87839508056642	1432.609619140625	-1250.094604492188	-24.24553680419923	1434.553588867188	-1248.863403320313	-23.64281654357911	1371.093505859375	-1204.049682617188	229.4069061279297	1465.817504882813	-1159.594360351563	246.8151550292969	1429.946899414063	-1226.569091796875	321.7383728027344	1484.97509765625	-1176.232543945313	-272.7182922363282	1567.464721679688	-813.752380371094	-113.6840591430664	1450.828979492188	-693.0587768554689	-78.77378845214845	1480.865966796875	-706.3861083984376	-45.54854583740235	1433.184326171875	-685.9762573242189	-0.7777550220489504	1426.991943359375	-690.2056274414064	-7.858878612518312	1371.541625976563	-742.5359497070314	247.1754455566407	1489.148803710938	-823.1721801757815	261.4757385253907	1454.06787109375	-752.7854003906251	322.8537597656251	1521.046020507813	-818.2169189453127	-186.5256500244141	1061.28564453125	-1068.275024414063	-179.4827270507813	1077.588745117188	-813.9568481445315	-370.7775268554688	1152.063232421875	-940.5859985351565	-377.0454711914063	1118.978393554688	-966.7492675781252	-375.1234436035157	1120.374633789063	-910.0302734375002	-289.3925170898438	823.7938232421877	-1141.45458984375	-262.1537170410157	742.8399047851564	-1140.032958984375	-214.5886993408204	743.5607299804689	-1135.656372070313	-293.5563049316407	692.2308959960939	-1122.463012695313	-301.3949279785157	538.9802246093751	-1103.415405273438	-270.6154785156251	531.2302246093751	-966.792175292969	-266.3759155273438	371.8594360351563	-1051.575927734375	-316.5707702636719	328.4385681152344	-1109.041015625	-278.5728149414063	324.1994628906251	-1084.38427734375	-289.8913269042969	247.1914367675782	-1050.258544921875	-356.7489013671876	113.9479904174805	-1090.037475585938	-325.8376464843751	132.2580108642578	-998.6190185546877	-425.9270324707032	101.9742507934571	-1032.83251953125	-214.2227630615235	54.39125823974611	-1011.74853515625	-207.0696105957032	53.21540451049806	-1061.146606445313	-258.6846313476563	38.02801895141602	-1112.929077148438	-268.2813720703126	776.098815917969	-714.2354736328126	-231.9505157470704	720.4285888671876	-709.8846435546876	-198.6181945800782	720.0438232421876	-714.3953247070314	-261.4084777832032	642.9876098632814	-721.6712646484376	-274.0369873046876	553.8612060546876	-717.7230224609376	-222.0870513916016	542.5590209960939	-846.2446289062502	-230.9950866699219	440.3384094238282	-715.3132934570314	-310.7586364746094	379.7845458984376	-677.4040527343751	-266.4555664062501	366.3620300292969	-685.3955688476564	-258.5606689453126	312.6393737792969	-705.4717407226564	-338.2580566406251	140.927490234375	-671.8966064453126	-295.2217407226563	150.1030883789063	-758.3302001953126	-401.737030029297	120.924301147461	-732.3641967773439	-188.5816345214844	53.15523910522462	-734.7850952148439	-187.8970642089844	54.95765304565431	-686.5939941406251	-241.6859588623047	45.37326812744141	-642.6090698242189	
